{"title":"Lawless 2012 TS XViD AC3 SeeN-CM8 [SilverTorrent]","uid":7648831,"size":1248838921,"categoryP":"video","categoryS":"movies","magnet":"?xt=urn:btih:24f652678087755183961d844514c56f7a81c0be&amp;dn=Lawless+2012+TS+XViD+AC3+SeeN-CM8+%5BSilverTorrent%5D&amp;tr=udp%3A%2F%2Ftracker.openbittorrent.com%3A80&amp;tr=udp%3A%2F%2Fopen.demonii.com%3A1337&amp;tr=udp%3A%2F%2Ftracker.coppersurfer.tk%3A6969&amp;tr=udp%3A%2F%2Fexodus.desync.com%3A6969","seeders":0,"leechers":0,"uploader":"AliBaloch","files":-1,"time":1347967805,"description":"SILVERTORRENT Clean Verified Torrents Download\n &lt;a href=&quot;\nhttp://silvertorrent.org/&quot; rel=&quot;nofollow&quot; target=&quot;_NEW&quot;&gt;\nhttp://silvertorrent.org/&lt;/a&gt;\n\n--------------------------------------------------\n\nLawless.2012.TS.XViD.AC3.SeeN-CM8\n\n\n\nThx SeeN\n\n\nVideo Source: Cam - HP, Thx awesome job as usual\nAudio Source: LiNe Audio - DrunkenNinja, ThX pure Quality, Awesome work Bro\n\nVideo: 688x304 @ 1400Kbps 2pass\nAudio: English AC3 2.0 @ 128Kbps\nSubtitles: N/A\nSample: Yes, included\n\n &lt;a href=&quot;\nhttp://www.imdb.com/title/tt1212450/&quot; rel=&quot;nofollow&quot; target=&quot;_NEW&quot;&gt;\nhttp://www.imdb.com/title/tt1212450/&lt;/a&gt;\n\n\nComplete name : Lawless.2012.TS.XViD.AC3.SeeN-CM8.avi\nFormat : AVI\nFormat/Info : Audio Video Interleave\nFile size : 1.16 GiB\nDuration : 1h 48mn\nOverall bit rate : 1 522 Kbps\nWriting library : VirtualDub build 34807/release\n\nVideo\nID : 0\nFormat : MPEG-4 Visual\nFormat profile : Advanced Simple@L5\nFormat settings, BVOP : 2\nFormat settings, QPel : No\nFormat settings, GMC : No warppoints\nFormat settings, Matrix : Default (H.263)\nMuxing mode : Packed bitstream\nCodec ID : XVID\nCodec ID/Hint : XviD\nDuration : 1h 48mn\nBit rate : 1 383 Kbps\nWidth : 688 pixels\nHeight : 304 pixels\nDisplay aspect ratio : 2.25:1\nFrame rate : 29.970 fps\nColor space : YUV\nChroma subsampling : 4:2:0\nBit depth : 8 bits\nScan type : Progressive\nCompression mode : Lossy\nBits/(Pixel*Frame) : 0.221\nStream size : 1.05 GiB (91%)\nWriting library : XviD 64\n\nAudio\nID : 1\nFormat : AC-3\nFormat/Info : Audio Coding 3\nMode extension : CM (complete main)\nFormat settings, Endianness : Big\nCodec ID : 2000\nDuration : 1h 48mn\nBit rate mode : Constant\nBit rate : 128 Kbps\nChannel(s) : 2 channels\nChannel positions : Front: L R\nSampling rate : 48.0 KHz\nBit depth : 16 bits\nCompression mode : Lossy\nStream size : 99.5 MiB (8%)\nAlignment : Aligned on interleaves\nInterleave, duration : 33 ms (1.00 video frame)\nInterleave, preload duration : 512 ms\n\n\nPlot:\nSet in Depression-era Franklin County, Virginia, a bootlegging gang\nis threatened by a new deputy and other authorities who want a cut\nof their profits.\n\n\nDirector: John Hillcoat\nWriters: Nick Cave (screenplay), Matt Bondurant (novel)\nStars: Tom Hardy, Shia LaBeouf and Guy Pearce\n\nScreen Shots: &lt;a href=&quot;\nhttp://img826.imageshack.us/img826/5646/redfgtgbvcdrftg.png&quot; rel=&quot;nofollow&quot; target=&quot;_NEW&quot;&gt;\nhttp://img826.imageshack.us/img826/5646/redfgtgbvcdrftg.png&lt;/a&gt; &lt;a href=&quot;\nhttp://img62.imageshack.us/img62/637/sdfgtredfvgcdf.png&quot; rel=&quot;nofollow&quot; target=&quot;_NEW&quot;&gt;\nhttp://img62.imageshack.us/img62/637/sdfgtredfvgcdf.png&lt;/a&gt; &lt;a href=&quot;\nhttp://img829.imageshack.us/img829/6566/vfgbvcfghyt.png&quot; rel=&quot;nofollow&quot; target=&quot;_NEW&quot;&gt;\nhttp://img829.imageshack.us/img829/6566/vfgbvcfghyt.png&lt;/a&gt; &lt;a href=&quot;\nhttp://img337.imageshack.us/img337/46/olkloikloikjh.png&quot; rel=&quot;nofollow&quot; target=&quot;_NEW&quot;&gt;\nhttp://img337.imageshack.us/img337/46/olkloikloikjh.png&lt;/a&gt; &lt;a href=&quot;\nhttp://img836.imageshack.us/img836/2691/lkloikjkiokjm.png&quot; rel=&quot;nofollow&quot; target=&quot;_NEW&quot;&gt;\nhttp://img836.imageshack.us/img836/2691/lkloikjkiokjm.png&lt;/a&gt; &lt;a href=&quot;\nhttp://img194.imageshack.us/img194/4774/loikjiuhj.png&quot; rel=&quot;nofollow&quot; target=&quot;_NEW&quot;&gt;\nhttp://img194.imageshack.us/img194/4774/loikjiuhj.png&lt;/a&gt; &lt;a href=&quot;\nhttp://img204.imageshack.us/img204/5332/jhjuyhujnhbvghjk.png&quot; rel=&quot;nofollow&quot; target=&quot;_NEW&quot;&gt;\nhttp://img204.imageshack.us/img204/5332/jhjuyhujnhbvghjk.png&lt;/a&gt; &lt;a href=&quot;\nhttp://img528.imageshack.us/img528/2943/hnbhnjmjhnbnh.png&quot; rel=&quot;nofollow&quot; target=&quot;_NEW&quot;&gt;\nhttp://img528.imageshack.us/img528/2943/hnbhnjmjhnbnh.png&lt;/a&gt; &lt;a href=&quot;\nhttp://img528.imageshack.us/img528/959/hjhyuikjuhg.png&quot; rel=&quot;nofollow&quot; target=&quot;_NEW&quot;&gt;\nhttp://img528.imageshack.us/img528/959/hjhyuikjuhg.png&lt;/a&gt; &lt;a href=&quot;\nhttp://img688.imageshack.us/img688/8176/ghythbvfgh.png&quot; rel=&quot;nofollow&quot; target=&quot;_NEW&quot;&gt;\nhttp://img688.imageshack.us/img688/8176/ghythbvfgh.png&lt;/a&gt; &lt;a href=&quot;\nhttp://img694.imageshack.us/img694/3482/dfgtrtghvfd.png&quot; rel=&quot;nofollow&quot; target=&quot;_NEW&quot;&gt;\nhttp://img694.imageshack.us/img694/3482/dfgtrtghvfd.png&lt;/a&gt; &lt;a href=&quot;\nhttp://img69.imageshack.us/img69/9344/asdfgtrfvc.png&quot; rel=&quot;nofollow&quot; target=&quot;_NEW&quot;&gt;\nhttp://img69.imageshack.us/img69/9344/asdfgtrfvc.png&lt;/a&gt;\n\nCheep SeedBoxs:http://www.secureboxes.net/?r=st","torrent":{"xt":"urn:btih:24f652678087755183961d844514c56f7a81c0be","amp;dn":"Lawless+2012+TS+XViD+AC3+SeeN-CM8+%5BSilverTorrent%5D","amp;tr":["udp%3A%2F%2Ftracker.openbittorrent.com%3A80","udp%3A%2F%2Fopen.demonii.com%3A1337","udp%3A%2F%2Ftracker.coppersurfer.tk%3A6969","udp%3A%2F%2Fexodus.desync.com%3A6969"],"infoHash":"24f652678087755183961d844514c56f7a81c0be","infoHashBuffer":{"type":"Buffer","data":[36,246,82,103,128,135,117,81,131,150,29,132,69,20,197,111,122,129,192,190]},"announce":[],"urlList":[]}}